<svg width="98" height="98" xmlns="http://www.w3.org/2000/svg" xmlns:xlink="http://www.w3.org/1999/xlink" xml:space="preserve" overflow="hidden"><g transform="translate(-16 -118)"><g><g><g><g><path d="M65 163C60 163 56 159 56 154 56 149 60 145 65 145 70 145 74 149 74 154 74 159 70 163 65 163ZM65 133C58.1 133 51.6 136.4 47.7 142.2 43.8 147.9 43 155.2 45.5 161.7L55 182.7 63.2 199.9C63.5 200.6 64.2 201 65 201 65.8 201 66.5 200.6 66.8 199.9L75 182.7 84.5 161.7C87 155.2 86.2 147.9 82.3 142.2 78.4 136.4 71.9 133 65 133Z" fill="#575FA7" fill-rule="nonzero" fill-opacity="0.806475"/></g></g></g></g></g></svg>